<?xml version="1.0" encoding="utf-8"?>
<!-- Generator: Adobe Illustrator 24.0.2, SVG Export Plug-In . SVG Version: 6.00 Build 0)  -->
<svg version="1.1" id="Capa_1" xmlns="http://www.w3.org/2000/svg" xmlns:xlink="http://www.w3.org/1999/xlink" x="0px" y="0px"
	 viewBox="0 0 1280 610" style="enable-background:new 0 0 1280 610;" xml:space="preserve">
<style type="text/css">
	.st0{fill:#29ABE2;}
	.st1{fill:#0060AF;}
	.st2{display:none;}
	.st3{fill:#F1F0EE;}
	.st4{fill:#C1C0BF;}
	.st5{fill:#2FC1F4;}
	.st6{fill:#3D699A;}
</style>
<g id="Capa_1_2_">
	<g id="Capa_1_1_">
		<path class="st0" d="M1115.6,397.4c-212.6-3.2-379.4-63.6-495-105.5C359.7,197.4,362.4,59.4,162.7,13.5
			c-15.1-3.5-31.5-6.4-49.1-8.8c-54.1-7.2-91.3-5-115-1v9.8v284.9c6.5,4.1,11.3,6.7,13,7.6c182.5,99.8,1072.4,405,1268,270.2V424.4
			C1235.7,396.3,1163.8,398.2,1115.6,397.4z"/>
		<g>
			<path class="st1" d="M0.6,135.5c-0.7,0.5-1.3,0.9-2,1.4v441.4c0.7,0.2,1.3,0.5,2,0.7c116.8,42.4,216.6-31,568-53.1
				c417.2-26.3,549.9,59.9,712-8V118.4C700.7,40.3,234.6-22.5,0.6,135.5z"/>
		</g>
	</g>
</g>
<g id="Images" class="st2">
	
		<image style="display:inline;overflow:visible;enable-background:new    ;" width="1920" height="1080" xlink:href="hero-medico.png"  transform="matrix(-0.2641 0 0 -0.2728 1281 560.5725)">
	</image>
	
		<image style="display:inline;overflow:visible;enable-background:new    ;" width="1920" height="1080" xlink:href="hero-medico.png"  transform="matrix(0.2722 0 0 0.2722 0 56)">
	</image>
</g>
<g>
	<path class="st3" d="M56.1,365.5l-2.9-2.5c11.5-13.1,31.4-36,36-42.6c6.1-8.7,13.8-8.3,17-6.9l0.2,0.1l8.5,5.1l-2,3.3l-8.3-5
		c-0.8-0.3-6.8-2.2-12.2,5.6C87.9,329,70.2,349.4,56.1,365.5z"/>
	<path class="st3" d="M115.1,416.9l-3.2-2c10.6-16.7,29.1-45.7,34.8-52.4c6.2-7.2,2.8-12.5,2.3-13.2l-7-6.8l2.7-2.7l7.2,7.1
		c2.2,2.7,4.6,10.1-2.3,18.1C143.9,371.7,123.6,403.6,115.1,416.9z"/>
	<path class="st4" d="M117.9,405.4c-2.2,3.4-4.2,6.6-6,9.5l3.2,2c1.7-2.6,3.8-6,6.2-9.7L117.9,405.4z"/>
	<path class="st4" d="M58.2,357.4c-1.8,2-3.4,3.9-4.9,5.6l2.9,2.5c1.7-1.9,3.4-3.9,5.1-5.8L58.2,357.4z"/>
	<path class="st5" d="M44.5,559.5c-7.5-2.6-14.5-6.3-20.3-11C13.7,540.1,7.6,529.2,6.4,517c-2-20.6,9.4-40.8,20.2-58
		c9.7-15.5,21-30.2,33.4-43.9l4.8,4.4c-12.2,13.4-23.2,27.9-32.7,43c-10.2,16.3-21,35.3-19.3,53.9c1,10.4,6.3,19.7,15.4,27
		c12.6,10.1,31.4,15.3,47.8,13.3l0.6-0.1c20.4-2.6,35.1-4.4,53,11.2l-4.3,4.9c-15.8-13.8-27.9-12.2-47.9-9.7l-0.6,0.1
		C66.4,564.5,55,563.1,44.5,559.5z"/>
	<path class="st0" d="M123.7,565.6l1.3-1.5c-15.9-11.6-29.8-9.9-48.4-7.5l-0.6,0.1c-16.4,2.1-35.1-3.1-47.8-13.3
		c-9.1-7.3-14.4-16.6-15.4-27c-1.8-18.6,9-37.6,19.3-53.9c9-14.4,19.5-28.2,31-41.1l-1.1-1c-11.7,12.9-22.5,27.6-31.7,42.1
		C20.2,478.8,9.7,496.5,11.5,516c1.1,11.5,6.3,20.5,16.1,28.4c5.5,4.4,11.4,7.5,18.5,9.9c9.8,3.4,20,4.8,29.9,3.5l0.5-0.1
		C95.4,555.3,108.4,553.6,123.7,565.6z"/>
	<path class="st5" d="M118.6,317.3l-2.7-1.7c-1.9-1.3-4.5-0.7-5.8,1.2l-0.6,1c-1.3,1.9-0.7,4.5,1.2,5.8l2.7,1.7
		c1.9,1.3,4.5,0.7,5.8-1.2l0.6-1C121.1,321.1,120.5,318.5,118.6,317.3z"/>
	<path class="st5" d="M145.2,335.8l2.3,2.1c1.7,1.6,1.8,4.2,0.3,5.9l-0.8,0.9c-1.6,1.7-4.2,1.8-5.9,0.3l-2.3-2.1
		c-1.7-1.6-1.8-4.2-0.3-5.9l0.8-0.9C140.9,334.3,143.5,334.2,145.2,335.8z"/>
	<path class="st5" d="M74,427.4c-4.6-1.6-9.1-4.1-13.6-7.5c-9.7-7.5-15.2-16.5-16.5-26.7c-2.2-17.7,9.1-32.5,9.6-33.1l5.1,4
		c-0.1,0.1-5.8,7.5-7.8,17.6c-2.6,13,1.9,24.1,13.6,33.1c8.3,6.4,16.7,9,25.2,7.9c15-2,25.2-15,25.3-15.2l5.2,4
		c-0.5,0.6-11.9,15.4-29.6,17.7C84.9,429.9,79.4,429.3,74,427.4z"/>
	<path class="st0" d="M116.9,409l-2-1.5c-0.1,0.1-10.3,13.2-25.3,15.2c-8.4,1.1-16.9-1.6-25.2-7.9c-11.6-9-16.2-20.1-13.6-33.1
		c2-10,7.8-17.5,7.8-17.6l-1.7-1.3c-2.1,3-9.9,15.1-8.1,29.1c1.2,9.2,6.2,17.3,14.9,24c4,3.1,8.1,5.4,12.2,6.8
		c4.9,1.7,9.8,2.2,14.8,1.5C104.8,422.4,114.5,411.9,116.9,409z"/>
	<path class="st0" d="M120.3,319.6c-0.1,0.5-0.3,1-0.6,1.5l-0.6,1c-1.3,1.9-3.8,2.5-5.8,1.2l-2.7-1.7c-0.9-0.6-1.5-1.4-1.8-2.4
		c-0.3,1.6,0.4,3.4,1.8,4.3l2.7,1.7c1.9,1.3,4.5,0.7,5.8-1.2l0.6-1C120.5,322,120.7,320.8,120.3,319.6z"/>
	<path class="st0" d="M148.8,339.9c-0.1,0.7-0.5,1.4-1,2l-0.8,0.9c-1.6,1.7-4.2,1.8-5.9,0.3l-2.3-2.1c-0.6-0.5-1-1.2-1.2-2
		c-0.3,1.4,0.2,2.9,1.3,3.9l2.3,2.1c1.7,1.6,4.4,1.4,5.9-0.3l0.8-0.9C148.8,342.7,149.1,341.2,148.8,339.9z"/>
	
		<ellipse transform="matrix(0.7422 -0.6702 0.6702 0.7422 -349.5708 234.3889)" class="st3" cx="129.9" cy="571.5" rx="11.7" ry="11.7"/>
	
		<ellipse transform="matrix(0.2514 -0.9679 0.9679 0.2514 -455.9702 553.5076)" class="st0" cx="129.9" cy="571.5" rx="5.6" ry="5.6"/>
	<path class="st6" d="M134.9,569c0,0.6-0.1,1.2-0.3,1.8c-1,2.9-4.2,4.5-7.1,3.5c-1.5-0.5-2.6-1.5-3.2-2.8c0,2.3,1.5,4.5,3.8,5.3
		c2.9,1,6.1-0.5,7.1-3.5C135.7,571.9,135.5,570.3,134.9,569z"/>
	<path class="st4" d="M141.5,572.4c-2.4,6.5-9.5,9.9-16,7.6c-3.1-1.1-5.6-3.3-7-6c0.8,3.9,3.6,7.2,7.6,8.6
		c6.1,2.1,12.7-1.1,14.8-7.2C141.2,574.3,141.4,573.3,141.5,572.4z"/>
</g>
<g>
	<path class="st3" d="M1149.8,124.7l0.9-4.1c-18.9-4.2-51.8-11.6-60.2-14.5c-11.2-3.8-17.8,1.6-19.7,5l-0.1,0.2l-4.2,10.1l3.9,1.6
		l4.2-10c0.5-0.8,4.6-6.5,14.6-3C1097.3,112.9,1126.7,119.6,1149.8,124.7z"/>
	<path class="st3" d="M1130.8,209.6l1.5-3.9c-20.5-8-56.2-21.8-65.6-24c-10.3-2.4-10.8-9.3-10.8-10.3l1.8-10.7l-4.2-0.7l-1.8,11.1
		c-0.2,3.9,2.5,12,14,14.7C1075.3,188,1114.4,203.2,1130.8,209.6z"/>
	<path class="st4" d="M1120.7,201.1c4.2,1.6,8.1,3.2,11.6,4.5l-1.5,3.9c-3.2-1.3-7.3-2.9-11.9-4.6L1120.7,201.1z"/>
	<path class="st4" d="M1142.6,118.8c2.9,0.6,5.6,1.3,8.1,1.8l-0.9,4.1c-2.7-0.6-5.6-1.2-8.4-1.9L1142.6,118.8z"/>
	<path class="st5" d="M1287.8,290.9c5-7.2,8.8-15.2,11-23.2c3.9-14.4,2.2-28.2-4.8-39.9c-11.8-19.8-35.2-30.3-56.2-38.6
		c-18.9-7.5-38.7-13.3-58.8-17.4l-1.4,7.1c19.7,4,39.1,9.7,57.6,17c19.9,7.9,42,17.8,52.7,35.6c6,10,7.3,21.8,4,34.3
		c-4.7,17.4-18,34.4-34.1,43.3l-0.6,0.3c-19.9,11.1-34.3,19.1-40.1,45l7.1,1.6c5.1-22.7,16.9-29.3,36.6-40.2l0.6-0.3
		C1271.5,309.7,1280.8,300.9,1287.8,290.9z"/>
	<path class="st0" d="M1220.9,348.4l-2.1-0.5c6.6-20.9,20.2-28.5,38.4-38.6l0.6-0.3c16-8.9,29.4-25.9,34.1-43.3
		c3.4-12.5,2-24.4-4-34.3c-10.7-17.8-32.8-27.7-52.7-35.6c-17.6-7-36-12.5-54.7-16.4l0.3-1.6c19,3.8,38.3,9.9,56,16.9
		c19.8,7.8,40.8,16.8,52,35.4c6.6,11,7.9,22.5,4.2,36c-2,7.5-5.3,14.2-10,21.1c-6.6,9.5-14.8,17.4-24.4,22.8l-0.5,0.3
		C1239.5,320.6,1226.7,327.5,1220.9,348.4z"/>
	<path class="st5" d="M1062.1,122.6l1.3-3.3c0.9-2.4,3.6-3.6,6-2.7l1.2,0.5c2.4,0.9,3.6,3.6,2.7,6l-1.3,3.3c-0.9,2.4-3.6,3.6-6,2.7
		l-1.2-0.5C1062.4,127.7,1061.2,125,1062.1,122.6z"/>
	<path class="st5" d="M1050.4,156.7l-0.7,3.5c-0.5,2.5,1.1,5,3.7,5.5l1.3,0.2c2.5,0.5,5-1.1,5.5-3.7l0.7-3.5c0.5-2.5-1.1-5-3.7-5.5
		l-1.3-0.2C1053.4,152.5,1050.9,154.2,1050.4,156.7z"/>
	<path class="st5" d="M1174.5,192c3.1-4.4,5.5-9.7,7.2-15.7c3.8-13.1,2.8-24.8-2.7-34.8c-9.6-17.3-29.5-23.1-30.4-23.3l-2,7
		c0.1,0,10.1,3,18.5,10.6c10.9,9.9,14.1,22.8,9.6,38.6c-3.2,11.1-9,19.1-17.3,23.7c-14.7,8.1-32.4,3.1-32.6,3l-2,6.9
		c0.8,0.2,20.8,5.9,38.1-3.6C1166.3,201.3,1170.9,197.2,1174.5,192z"/>
	<path class="st0" d="M1124,203.6l0.8-2.7c0.2,0.1,17.9,5.1,32.6-3c8.3-4.6,14.1-12.5,17.3-23.7c4.5-15.7,1.3-28.7-9.6-38.6
		c-8.4-7.6-18.4-10.6-18.5-10.6l0.7-2.3c3.9,1.3,18.8,7,26.4,20.7c5,9,5.8,19.6,2.5,31.3c-1.6,5.4-3.7,10.1-6.5,14.1
		c-3.3,4.7-7.3,8.4-12.2,11.1C1143.7,207.7,1128,204.6,1124,203.6z"/>
	<path class="st0" d="M1062.1,125.9c0.4,0.4,0.9,0.7,1.5,0.9l1.2,0.5c2.4,0.9,5.1-0.3,6-2.7l1.3-3.3c0.4-1.1,0.4-2.3,0-3.3
		c1.4,1.3,1.9,3.2,1.2,5.1l-1.3,3.3c-0.9,2.4-3.6,3.6-6,2.7l-1.2-0.5C1063.5,128.1,1062.6,127.1,1062.1,125.9z"/>
	<path class="st0" d="M1050,162.7c0.6,0.6,1.4,1,2.2,1.1l1.3,0.2c2.5,0.5,5-1.1,5.5-3.7l0.7-3.5c0.2-0.9,0.1-1.8-0.2-2.5
		c1.2,1.1,1.7,2.7,1.4,4.3l-0.7,3.5c-0.5,2.5-2.9,4.2-5.5,3.7l-1.3-0.2C1051.8,165.3,1050.5,164.1,1050,162.7z"/>
	<ellipse transform="matrix(0.1009 -0.9949 0.9949 0.1009 740.35 1534.7086)" class="st3" cx="1219.3" cy="357.7" rx="13" ry="13"/>
	
		<ellipse transform="matrix(0.6313 -0.7756 0.7756 0.6313 172.13 1077.5309)" class="st0" cx="1219.3" cy="357.7" rx="6.2" ry="6.2"/>
	<path class="st6" d="M1213.1,358.8c0.4,0.5,0.9,1,1.5,1.5c2.8,2,6.7,1.3,8.7-1.6c1-1.4,1.3-3.1,1-4.6c1.5,2.1,1.7,5,0.1,7.2
		c-2,2.8-5.9,3.5-8.7,1.6C1214.3,361.9,1213.4,360.4,1213.1,358.8z"/>
	<path class="st4" d="M1209.4,366.1c6.4,4.2,15,2.6,19.3-3.7c2.1-3,2.8-6.6,2.3-10c1.8,4,1.5,8.8-1.1,12.7c-4.1,5.9-12.2,7.4-18,3.3
		C1211,367.7,1210.1,367,1209.4,366.1z"/>
</g>
</svg>
