<?xml version="1.0" encoding="utf-8"?>
<!-- Generator: Adobe Illustrator 24.0.2, SVG Export Plug-In . SVG Version: 6.00 Build 0)  -->
<svg version="1.1" id="Capa_1" xmlns="http://www.w3.org/2000/svg" xmlns:xlink="http://www.w3.org/1999/xlink" x="0px" y="0px"
	 viewBox="0 0 1240 1420.8" style="enable-background:new 0 0 1240 1420.8;" xml:space="preserve">
<style type="text/css">
	.st0{clip-path:url(#SVGID_2_);}
	.st1{fill:#29ABE2;}
	.st2{clip-path:url(#SVGID_4_);}
	.st3{fill:#0060AF;}
	.st4{fill:#F1F0EE;}
	.st5{fill:#C1C0BF;}
	.st6{fill:#2FC1F4;}
	.st7{fill:#3D699A;}
</style>
<title>Recurso 1</title>
<g id="Capa_2_1_">
	<g id="Capa_1-2">
		<g id="Capa_3">
			<g>
				<g>
					<defs>
						<rect id="SVGID_1_" y="-217.4" width="1240" height="1982"/>
					</defs>
					<clipPath id="SVGID_2_">
						<use xlink:href="#SVGID_1_"  style="overflow:visible;"/>
					</clipPath>
					<g class="st0">
						<path class="st1" d="M1375.6,919.1c-301.2-7.6-537.5-150.2-701.3-249C304.7,447,308.5,121.1,25.6,12.8H-207v672.4
							c9.2,9.6,15.9,15.8,18.4,18C70.1,938.7,1330.9,1659.1,1608,1341.1V982.7C1545.8,916.3,1444,920.8,1375.6,919.1z"/>
						<path class="st1" d="M-44.1-7.9C-120.7-25-173.5-19.6-207-10.3v23.2H25.6C2.9,4.3-20.4-2.7-44.1-7.9z"/>
					</g>
				</g>
			</g>
			<g>
				<g>
					<defs>
						<rect id="SVGID_3_" y="-217.4" width="1240" height="1982"/>
					</defs>
					<clipPath id="SVGID_4_">
						<use xlink:href="#SVGID_3_"  style="overflow:visible;"/>
					</clipPath>
					<g class="st2">
						<path class="st3" d="M-129,316c-0.8,1.1-1.6,2.1-2.3,3.2v1035.9c0.8,0.6,1.6,1.2,2.3,1.8c136.7,99.4,253.4-72.8,664.8-124.7
							c488.3-61.7,643.5,140.5,833.3-18.8V275.7C690.4,92.3,144.9-55.1-129,316z"/>
					</g>
				</g>
			</g>
		</g>
	</g>
</g>
<g>
	<path class="st4" d="M104,1032.3l-3-3.7c17.1-13.6,46.8-37.5,53.9-44.5c9.4-9.4,18.8-7.2,22.5-4.7l0.2,0.2l9.3,8.2l-3.1,3.6
		l-9.2-8.1c-0.9-0.5-7.9-4.3-16.3,4.2C151.5,994.2,125,1015.6,104,1032.3z"/>
	<path class="st4" d="M165.4,1109l-3.5-3.2c16.8-18.3,46.2-49.9,54.7-56.9c9.2-7.5,6.3-14.8,5.8-15.8l-7.1-10l3.9-2.8l7.3,10.4
		c2.1,3.9,3.4,13.5-6.9,21.9C211.1,1059.5,178.9,1094.3,165.4,1109z"/>
	<path class="st5" d="M171.5,1095.4c-3.4,3.7-6.7,7.2-9.6,10.4l3.5,3.2c2.6-2.9,6-6.5,9.8-10.6L171.5,1095.4z"/>
	<path class="st5" d="M108.4,1022.7c-2.6,2.1-5.1,4.1-7.4,5.9l3,3.7c2.5-2,5-4,7.6-6.1L108.4,1022.7z"/>
	<path class="st6" d="M46.4,1269.2c-8.7-4.9-16.5-11-22.6-18.1c-11.1-12.7-16.3-27.5-15-42.9c2.2-25.9,20.7-48.2,37.9-67.1
		c15.4-16.9,32.6-32.7,51.1-46.8l5,6.5c-18.1,13.8-34.9,29.2-50,45.8c-16.3,17.9-33.9,38.9-35.8,62.2c-1.1,13.1,3.4,25.8,13,36.8
		c13.3,15.3,35.3,25.9,56,27.1l0.7,0c25.7,1.4,44.3,2.4,63,25.7l-6.4,5.1c-16.4-20.5-31.7-21.3-57-22.7l-0.7,0
		C72.3,1280.2,58.5,1276,46.4,1269.2z"/>
	<path class="st1" d="M142.8,1294.5l1.9-1.5c-17.1-17.9-34.6-18.9-58.1-20.1l-0.7,0c-20.7-1.1-42.7-11.7-56-27.1
		c-9.6-11-14.1-23.7-13-36.8c2-23.4,19.5-44.4,35.8-62.2c14.4-15.8,30.3-30.5,47.4-43.8l-1.1-1.5c-17.3,13.3-34,29-48.5,44.9
		c-16.2,17.7-33.1,37.3-35.2,61.7c-1.2,14.4,3.2,26.7,13.6,38.6c5.8,6.6,12.4,11.8,20.6,16.4c11.4,6.4,23.6,10.3,36.1,11l0.7,0
		C110.1,1275.4,126.6,1276.1,142.8,1294.5z"/>
	<path class="st6" d="M192,986.7l-2.9-2.7c-2.1-2-5.4-1.9-7.4,0.2l-1,1.1c-2,2.1-1.9,5.4,0.2,7.4l2.9,2.7c2.1,2,5.4,1.9,7.4-0.2
		l1-1.1C194.2,992,194.1,988.6,192,986.7z"/>
	<path class="st6" d="M220.8,1015.4l2.4,3.2c1.8,2.3,1.3,5.6-1,7.4l-1.2,0.9c-2.3,1.8-5.6,1.3-7.4-1l-2.4-3.2
		c-1.8-2.3-1.3-5.6,1-7.4l1.2-0.9C215.7,1012.7,219,1013.1,220.8,1015.4z"/>
	<path class="st6" d="M112.4,1112.7c-5.3-3-10.4-7.1-15.1-12.3c-10.3-11.4-15.1-23.7-14.5-36.6c1.2-22.3,18.5-38.1,19.3-38.7
		l5.5,6.1c-0.1,0.1-8.8,8-13.6,19.9c-6.2,15.4-3,30.2,9.4,43.9c8.8,9.7,18.6,14.9,29.3,15.4c19,0.9,34.4-13,34.6-13.1l5.5,6
		c-0.7,0.7-18.2,16.3-40.5,15.2C125.3,1118.2,118.6,1116.2,112.4,1112.7z"/>
	<path class="st1" d="M169.3,1099.6l-2.1-2.3c-0.2,0.1-15.6,14-34.6,13.1c-10.7-0.5-20.5-5.7-29.3-15.4
		c-12.4-13.7-15.5-28.5-9.4-43.9c4.8-11.9,13.5-19.9,13.6-19.9l-1.8-2c-3.3,3.2-15.6,16.4-16.5,34.1c-0.6,11.6,3.8,22.8,13,33
		c4.3,4.7,8.8,8.4,13.6,11.1c5.6,3.2,11.6,4.9,17.9,5.2C151.5,1113.4,165.8,1102.5,169.3,1099.6z"/>
	<path class="st1" d="M193.6,990c-0.2,0.6-0.6,1.2-1.1,1.7l-1,1.1c-2,2.1-5.3,2.2-7.4,0.2l-2.9-2.7c-1-0.9-1.5-2.1-1.6-3.3
		c-0.8,1.9-0.3,4.2,1.3,5.8l2.9,2.7c2.1,2,5.4,1.9,7.4-0.2l1-1.1C193.3,992.9,193.8,991.4,193.6,990z"/>
	<path class="st1" d="M224.2,1021.3c-0.3,0.9-0.9,1.7-1.7,2.3l-1.2,0.9c-2.3,1.8-5.6,1.3-7.4-1l-2.4-3.2c-0.6-0.8-1-1.7-1-2.7
		c-0.6,1.6-0.4,3.6,0.7,5.1l2.4,3.2c1.8,2.3,5,2.8,7.4,1l1.2-0.9C223.7,1024.8,224.4,1023,224.2,1021.3z"/>
	
		<ellipse transform="matrix(0.8497 -0.5272 0.5272 0.8497 -664.6717 274.4396)" class="st4" cx="149.1" cy="1303.1" rx="14.6" ry="14.6"/>
	
		<ellipse transform="matrix(0.4199 -0.9076 0.9076 0.4199 -1096.223 891.2679)" class="st1" cx="149.1" cy="1303.1" rx="7.1" ry="7.1"/>
	<path class="st7" d="M155.8,1301.2c-0.1,0.8-0.4,1.5-0.8,2.2c-1.9,3.4-6.2,4.6-9.6,2.7c-1.7-0.9-2.8-2.5-3.3-4.2
		c-0.5,2.9,0.8,5.9,3.5,7.4c3.4,1.9,7.7,0.7,9.6-2.7C156.2,1304.9,156.3,1302.9,155.8,1301.2z"/>
	<path class="st5" d="M163.2,1306.7c-4.4,7.5-13.9,10.1-21.5,5.8c-3.6-2-6.2-5.3-7.3-9c0.2,5,2.8,9.7,7.5,12.3
		c7.1,4,16,1.4,19.9-5.6C162.5,1309.1,162.9,1308,163.2,1306.7z"/>
</g>
<g>
	<path class="st4" d="M1089.4,243.3l1.4-4.6c-20.9-6.5-57.2-17.9-66.4-21.9c-12.2-5.3-20.1,0.2-22.6,3.8l-0.1,0.2l-5.7,11l4.2,2.2
		l5.6-10.8c0.6-0.8,5.8-6.8,16.7-2C1031.4,225.1,1063.8,235.4,1089.4,243.3z"/>
	<path class="st4" d="M1060,337.1l2.1-4.3c-22.3-10.9-61.2-29.8-71.6-33.2c-11.3-3.7-11.2-11.5-11.2-12.6l3-11.8l-4.6-1.2l-3.1,12.3
		c-0.6,4.4,1.7,13.8,14.4,17.9C999.6,307.6,1042.2,328.3,1060,337.1z"/>
	<path class="st5" d="M1049.4,326.6c4.6,2.2,8.9,4.3,12.7,6.2l-2.1,4.3c-3.5-1.7-8-3.9-12.9-6.3L1049.4,326.6z"/>
	<path class="st5" d="M1081.8,236c3.2,1,6.2,1.9,9,2.8l-1.4,4.6c-3-0.9-6.1-1.9-9.3-2.9L1081.8,236z"/>
	<path class="st6" d="M1229,443.2c6.3-7.7,11.4-16.3,14.5-25.1c5.7-15.9,5.2-31.6-1.6-45.4c-11.4-23.4-36.8-37.4-59.7-48.7
		c-20.5-10.2-42.3-18.6-64.6-25.1l-2.3,7.9c21.8,6.3,43.1,14.6,63.2,24.5c21.7,10.7,45.6,23.9,56,45c5.8,11.8,6.2,25.3,1.3,39
		c-6.9,19.1-23.5,37-42.4,45.5l-0.6,0.3c-23.5,10.6-40.4,18.3-49.3,46.8l7.8,2.4c7.8-25.1,21.8-31.4,44.9-41.8l0.6-0.3
		C1208.9,462.9,1220.2,453.9,1229,443.2z"/>
	<path class="st1" d="M1148.3,501.8l-2.3-0.7c9.4-22.9,25.4-30.1,46.8-39.8l0.6-0.3c18.9-8.5,35.5-26.4,42.4-45.5
		c4.9-13.7,4.5-27.2-1.3-39c-10.3-21.1-34.3-34.3-56-45c-19.1-9.5-39.3-17.4-60.1-23.6l0.5-1.8c21,6.1,42.2,14.7,61.5,24.3
		c21.5,10.7,44.4,22.8,55.1,44.7c6.4,13,6.7,26,1.4,40.9c-3,8.3-7.3,15.5-13.2,22.8c-8.3,10.1-18.3,18.2-29.6,23.3l-0.6,0.3
		C1171.9,472.2,1156.8,478.8,1148.3,501.8z"/>
	<path class="st6" d="M990.9,232.7l1.7-3.6c1.3-2.6,4.4-3.7,7-2.5l1.3,0.6c2.6,1.3,3.7,4.4,2.5,7l-1.7,3.6c-1.3,2.6-4.4,3.7-7,2.5
		l-1.3-0.6C990.7,238.5,989.6,235.3,990.9,232.7z"/>
	<path class="st6" d="M974.5,270l-1.1,3.8c-0.8,2.8,0.8,5.7,3.6,6.5l1.4,0.4c2.8,0.8,5.7-0.8,6.5-3.6l1.1-3.8
		c0.8-2.8-0.8-5.7-3.6-6.5l-1.4-0.4C978.3,265.6,975.3,267.2,974.5,270z"/>
	<path class="st6" d="M1110.8,321.3c3.9-4.7,7.1-10.4,9.6-17c5.5-14.3,5.5-27.6,0.2-39.4c-9.2-20.4-31.1-28.8-32-29.1l-2.9,7.7
		c0.1,0,11.1,4.3,19.9,13.7c11.3,12.1,13.7,27,7.2,44.3c-4.7,12.2-12,20.7-21.7,25c-17.3,7.7-36.8,0.4-37,0.3l-2.9,7.6
		c0.9,0.4,22.9,8.6,43.2-0.5C1100.8,331.1,1106.3,326.9,1110.8,321.3z"/>
	<path class="st1" d="M1053,329.7l1.1-2.9c0.2,0.1,19.7,7.4,37-0.3c9.8-4.4,17.1-12.8,21.7-25c6.6-17.3,4.1-32.2-7.2-44.3
		c-8.7-9.4-19.8-13.6-19.9-13.7l0.9-2.5c4.3,1.8,20.5,9.6,27.8,25.8c4.8,10.6,4.7,22.6-0.2,35.5c-2.3,5.9-5.1,11-8.6,15.3
		c-4.1,5-9.1,8.8-14.8,11.4C1074.6,336.2,1057.4,331.2,1053,329.7z"/>
	<path class="st1" d="M990.6,236.4c0.4,0.5,1,0.9,1.6,1.2l1.3,0.6c2.6,1.3,5.8,0.2,7-2.5l1.7-3.6c0.6-1.2,0.7-2.5,0.3-3.7
		c1.4,1.5,1.8,3.8,0.9,5.8l-1.7,3.6c-1.3,2.6-4.4,3.7-7,2.5l-1.3-0.6C991.9,239.1,991,237.8,990.6,236.4z"/>
	<path class="st1" d="M973.4,276.7c0.6,0.7,1.4,1.2,2.4,1.5l1.4,0.4c2.8,0.8,5.7-0.8,6.5-3.6l1.1-3.8c0.3-1,0.3-2,0-2.9
		c1.2,1.3,1.7,3.2,1.2,5l-1.1,3.8c-0.8,2.8-3.7,4.4-6.5,3.6l-1.4-0.4C975.2,279.8,973.9,278.4,973.4,276.7z"/>
	
		<ellipse transform="matrix(0.1832 -0.9831 0.9831 0.1832 432.3157 1544.5233)" class="st4" cx="1145.7" cy="512.1" rx="14.6" ry="14.6"/>
	
		<ellipse transform="matrix(0.6936 -0.7204 0.7204 0.6936 -17.8277 982.2639)" class="st1" cx="1145.7" cy="512.1" rx="7.1" ry="7.1"/>
	<path class="st7" d="M1138.7,512.7c0.4,0.7,0.9,1.3,1.5,1.8c3,2.5,7.5,2,9.9-1c1.2-1.5,1.7-3.3,1.6-5.1c1.5,2.5,1.4,5.8-0.6,8.2
		c-2.5,3-6.9,3.4-9.9,1C1139.7,516.3,1138.8,514.5,1138.7,512.7z"/>
	<path class="st5" d="M1133.8,520.6c6.8,5.4,16.6,4.4,22.1-2.3c2.7-3.2,3.8-7.2,3.6-11.1c1.7,4.7,0.9,10.1-2.5,14.2
		c-5.1,6.2-14.4,7.1-20.6,2C1135.4,522.6,1134.5,521.6,1133.8,520.6z"/>
</g>
</svg>
