<?xml version="1.0" encoding="utf-8"?>
<!-- Generator: Adobe Illustrator 24.0.2, SVG Export Plug-In . SVG Version: 6.00 Build 0)  -->
<svg version="1.1" id="Capa_1" xmlns="http://www.w3.org/2000/svg" xmlns:xlink="http://www.w3.org/1999/xlink" x="0px" y="0px"
	 viewBox="0 0 1242 1412" style="enable-background:new 0 0 1242 1412;" xml:space="preserve">
<style type="text/css">
	.st0{clip-path:url(#SVGID_2_);}
	.st1{fill:#29ABE2;}
	.st2{clip-path:url(#SVGID_4_);}
	.st3{fill:#0060AF;}
	.st4{display:none;}
	.st5{display:inline;fill:#FFFFFF;}
	.st6{font-family:'ArialMT';}
	.st7{font-size:100px;}
	.st8{display:inline;fill:none;}
	.st9{font-size:60px;}
</style>
<g id="Capa_3">
	<g>
		<g>
			<defs>
				<rect id="SVGID_1_" x="2" y="-216" width="1240" height="1982"/>
			</defs>
			<clipPath id="SVGID_2_">
				<use xlink:href="#SVGID_1_"  style="overflow:visible;"/>
			</clipPath>
			<g class="st0">
				<path class="st1" d="M1377.6,920.5c-301.2-7.6-537.5-150.2-701.3-249C306.7,448.4,310.5,122.5,27.6,14.2H-205v672.4
					c9.2,9.6,15.9,15.8,18.4,18C72.1,940.1,1332.9,1660.5,1610,1342.5V984.1C1547.8,917.7,1446,922.2,1377.6,920.5z"/>
				<g>
					<path class="st1" d="M-42.1-6.5C-118.7-23.6-171.5-18.2-205-8.9v23.2H27.6C6.1,6-17-0.9-42.1-6.5z"/>
				</g>
			</g>
		</g>
		<g>
			<defs>
				<rect id="SVGID_3_" x="2" y="-216" width="1240" height="1982"/>
			</defs>
			<clipPath id="SVGID_4_">
				<use xlink:href="#SVGID_3_"  style="overflow:visible;"/>
			</clipPath>
			<g class="st2">
				<path class="st3" d="M-127,317.4c-0.8,1.1-1.6,2.1-2.3,3.2v1035.9c0.8,0.6,1.6,1.2,2.3,1.8c136.7,99.4,253.4-72.8,664.8-124.7
					c488.3-61.7,643.5,140.5,833.3-18.8V277.1C692.4,93.7,146.9-53.7-127,317.4z"/>
			</g>
		</g>
	</g>
</g>
<g id="Capa_2_1_" class="st4">
	<text transform="matrix(1 0 0 1 106.4619 476.8462)" class="st5 st6 st7">¿ Que es Médico Amigo ?</text>
	<rect x="106.1" y="595.7" class="st8" width="1023.1" height="473.1"/>
	<text transform="matrix(1 0 0 1 106.0771 638.292)" class="st5 st6 st9">Lorem ipsum dolor sit amet, consecte</text>
	<text transform="matrix(1 0 0 1 1041.8771 638.292)" class="st5 st6 st9">-</text>
	<text transform="matrix(1 0 0 1 106.0771 710.292)" class="st5 st6 st9">tuer adipiscing elit, sed diam nonummy </text>
	<text transform="matrix(1 0 0 1 106.0771 782.292)" class="st5 st6 st9">nibh euisLorem ipsum dolor sit amet, </text>
	<text transform="matrix(1 0 0 1 106.0771 854.292)" class="st5 st6 st9">consectetuer adipiscing elit, sed diam </text>
	<text transform="matrix(1 0 0 1 106.0771 926.292)" class="st5 st6 st9">nonummy nibh euismod tincidunt ut </text>
	<text transform="matrix(1 0 0 1 106.0771 998.292)" class="st5 st6 st9">laoreet dolore magna aliquam ervat volu</text>
</g>
<g id="images">
	
		<image style="overflow:visible;enable-background:new    ;" width="1920" height="1080" xlink:href="hero-medico.png"  transform="matrix(0.2722 0 0 0.2722 0 1047)">
	</image>
	
		<image style="overflow:visible;enable-background:new    ;" width="1920" height="1080" xlink:href="hero-medico.png"  transform="matrix(-0.2722 0 0 -0.2722 1241.6576 497.0129)">
	</image>
</g>
</svg>
