<?xml version="1.0" encoding="utf-8"?>
<!-- Generator: Adobe Illustrator 24.0.2, SVG Export Plug-In . SVG Version: 6.00 Build 0)  -->
<svg version="1.1" id="Capa_1" xmlns="http://www.w3.org/2000/svg" xmlns:xlink="http://www.w3.org/1999/xlink" x="0px" y="0px"
	 viewBox="0 0 507.4 267.4" style="enable-background:new 0 0 507.4 267.4;" xml:space="preserve">
<style type="text/css">
	.st0{fill:#D8D8D8;}
	.st1{fill:#29ABE2;}
	.st2{fill:#3366AF;}
	.st3{display:none;}
	.st4{display:inline;fill:#FFFFFF;}
	.st5{font-family:'ArialMT';}
	.st6{font-size:35px;}
	.st7{display:inline;fill:none;}
	.st8{font-size:12px;}
	.st9{fill:#3A78C1;}
</style>
<g id="Sombra_1_">
	<g>
		<path class="st0" d="M467.1,259.9H40.3C18.1,259.9,0,246.2,0,229.5V40.7C0,24,18.1,10.3,40.3,10.3h426.8
			c22.2,0,40.3,13.7,40.3,30.4v188.7C507.4,246.2,489.3,259.9,467.1,259.9z"/>
		<path class="st0" d="M462.5,257.6c56.4-42.7,48.1-204-13.9-245.7c-40.1-27-72.5,24-206.5,12.7C129.6,15.2,89-7.8,50.6,15
			c-33,19.5-36.6,58.4-42,105.3C2.6,172.9-3.3,224.4,31.5,252.9c39,32,88.9,2.1,267.9-4C405.7,245.2,435.2,278.3,462.5,257.6z"/>
	</g>
</g>
<g id="Hat">
	<path class="st1" d="M466.5,255.6H48.3C26.1,255.6,8,241.9,8,225.2V36.8C8,20.1,26.1,6.4,48.3,6.4h418.2
		c22.2,0,40.3,13.7,40.3,30.4v188.4C506.8,241.9,488.7,255.6,466.5,255.6z"/>
	<path class="st2" d="M462.6,253.3C518,210.6,510,49.6,449,8c-39.4-27-71.3,23.9-203,12.7C135.5,11.3,95.4-11.7,57.7,11.1
		C25.3,30.5,21.8,69.4,16.5,116.2c-5.9,52.6-11.7,104,22.5,132.4c38.3,31.9,84.4,6.4,260.3,0.3C403.9,245.3,435.8,274,462.6,253.3z"
		/>
</g>
<g id="Capa_2_1_" class="st3">
	<text transform="matrix(1 0 0 1 112.4785 43.5566)" class="st4 st5 st6">Consulta Medica Domiciliara</text>
	<rect x="139.4" y="76.3" class="st7" width="361.1" height="183.3"/>
	<text transform="matrix(1 0 0 1 139.4175 84.8544)" class="st4 st5 st8">Lorem ipsum dolor sit amet, consectetuer adipiscing elit, sed diam </text>
	<text transform="matrix(1 0 0 1 139.4175 99.2544)" class="st4 st5 st8">nonummy nibh euismod tincidunt ut laoreet dolore magna aliquam erat </text>
	<text transform="matrix(1 0 0 1 139.4175 113.6544)" class="st4 st5 st8">volutpat. Ut wisi enim ad minim veniam, quis nostrud exerci tation </text>
	<text transform="matrix(1 0 0 1 139.4175 128.0544)" class="st4 st5 st8">ullamcorper suscipit lobortis nisl vulputate velit esse molestie </text>
	<text transform="matrix(1 0 0 1 139.4175 142.4543)" class="st4 st5 st8">consequat, vel illum dolore eu feugiat nulla facilisis at vero eros et </text>
	<text transform="matrix(1 0 0 1 139.4175 156.8544)" class="st4 st5 st8">accumsan et iusto odio dignissim qui blvandit pra</text>
	<text transform="matrix(1 0 0 1 139.4175 185.6544)" class="st4 st5 st8">esent luptatum zzril delenit augue duis dolore te feugait nulla facilisi.</text>
	<text transform="matrix(1 0 0 1 139.4175 200.0544)" class="st4 st5 st8">Lorem ipsum dolor sit amet, cons ectetuer adipiscing elit, sed diam </text>
	<text transform="matrix(1 0 0 1 139.4175 214.4543)" class="st4 st5 st8">nonummy nibh euismod tincidunt ut laoreet dolore magna aliquam erat </text>
	<text transform="matrix(1 0 0 1 139.4175 228.8544)" class="st4 st5 st8">volutpat. Ut wisi enim ad minim veniam, quis nostrud exerci tation </text>
	<text transform="matrix(1 0 0 1 139.4175 243.2544)" class="st4 st5 st8">ullamcorper suscipit lobortis nisl ut aliq</text>
</g>
<path class="st9" d="M253.9,79.6l-66.1,67.9c-0.5,0.6-1.1,0.7-1.7,1.2v65.2c0,3.1,2.1,5.6,4.8,5.6h125.8c2.7,0,4.8-2.5,4.8-5.6
	v-65.2c-0.5-0.4-1.1-0.6-1.6-1.1L253.9,79.6z M282.9,171.6c0,1.5-1.1,2.8-2.4,2.8h-17v19.8c0,1.5-1.1,2.8-2.4,2.8h-14.5
	c-1.3,0-2.4-1.3-2.4-2.8v-19.8h-17c-1.3,0-2.4-1.3-2.4-2.8v-16.9c0-1.5,1.1-2.8,2.4-2.8h17v-19.8c0-1.5,1.1-2.8,2.4-2.8h14.5
	c1.3,0,2.4,1.3,2.4,2.8v19.8h17c1.3,0,2.4,1.3,2.4,2.8V171.6z M339.3,122.3l-77.4-79.7c-4.6-4.8-11.6-4.8-16.1,0l-77.4,79.7
	c-2,2.1-2.1,5.6-0.3,8l0,0l6.4,8.4c1.8,2.3,4.8,2.5,6.9,0.4l0,0l69.3-71.3c1.8-1.9,4.5-1.9,6.4,0l69.3,71.3c2,2.1,5.1,1.9,6.9-0.4
	l0,0l6.4-8.4C341.5,127.9,341.3,124.4,339.3,122.3z"/>
</svg>
