<?xml version="1.0" encoding="utf-8"?>
<!-- Generator: Adobe Illustrator 24.0.2, SVG Export Plug-In . SVG Version: 6.00 Build 0)  -->
<svg version="1.1" id="Capa_1" xmlns="http://www.w3.org/2000/svg" xmlns:xlink="http://www.w3.org/1999/xlink" x="0px" y="0px"
	 viewBox="0 0 591 267.4" style="enable-background:new 0 0 591 267.4;" xml:space="preserve">
<style type="text/css">
	.st0{fill:#D8D8D8;}
	.st1{fill:#29ABE2;}
	.st2{fill:#3366AF;}
	.st3{display:none;}
	.st4{display:inline;fill:#FFFFFF;}
	.st5{font-family:'ArialMT';}
	.st6{font-size:35px;}
	.st7{display:inline;fill:none;}
	.st8{font-size:12px;}
	.st9{fill:#3A78C1;}
</style>
<g id="Sombra_1_">
	<g>
		<path class="st0" d="M544,259.9H46.6c-25.9,0-47-13.7-47-30.4V40.7c0-16.7,21.1-30.4,47-30.4H544c25.9,0,47,13.7,47,30.4v188.7
			C591,246.2,569.9,259.9,544,259.9z"/>
		<path class="st0" d="M538.7,257.6c65.7-42.7,56.1-204-16.2-245.7c-46.7-27-84.5,24-240.7,12.7C150.7,15.2,103.3-7.8,58.6,15
			C20.1,34.5,15.9,73.4,9.7,120.3C2.6,172.9-4.2,224.4,36.3,252.9c45.5,32,103.6,2.1,312.2-4C472.5,245.2,506.8,278.3,538.7,257.6z"
			/>
	</g>
</g>
<g id="Hat">
	<path class="st1" d="M543.3,255.6H55.9c-25.9,0-47-13.7-47-30.4V36.8c0-16.7,21.1-30.4,47-30.4h487.4c25.9,0,47,13.7,47,30.4v188.4
		C590.3,241.9,569.2,255.6,543.3,255.6z"/>
	<path class="st2" d="M538.8,253.3C603.3,210.6,594,49.6,522.9,8C477-19,439.8,31.9,286.3,20.7c-128.8-9.4-175.5-32.4-219.5-9.6
		C29.1,30.5,25,69.4,18.8,116.2c-6.9,52.6-13.6,104,26.2,132.4c44.6,31.9,98.4,6.4,303.4,0.3C470.4,245.3,507.5,274,538.8,253.3z"/>
</g>
<g id="Capa_2_1_" class="st3">
	<text transform="matrix(1 0 0 1 154.0785 43.5566)" class="st4 st5 st6">Consulta Medica Domiciliara</text>
	<rect x="181" y="76.3" class="st7" width="361.1" height="183.3"/>
	<text transform="matrix(1 0 0 1 181.0175 84.8544)" class="st4 st5 st8">Lorem ipsum dolor sit amet, consectetuer adipiscing elit, sed diam </text>
	<text transform="matrix(1 0 0 1 181.0175 99.2544)" class="st4 st5 st8">nonummy nibh euismod tincidunt ut laoreet dolore magna aliquam erat </text>
	<text transform="matrix(1 0 0 1 181.0175 113.6544)" class="st4 st5 st8">volutpat. Ut wisi enim ad minim veniam, quis nostrud exerci tation </text>
	<text transform="matrix(1 0 0 1 181.0175 128.0544)" class="st4 st5 st8">ullamcorper suscipit lobortis nisl vulputate velit esse molestie </text>
	<text transform="matrix(1 0 0 1 181.0175 142.4543)" class="st4 st5 st8">consequat, vel illum dolore eu feugiat nulla facilisis at vero eros et </text>
	<text transform="matrix(1 0 0 1 181.0175 156.8544)" class="st4 st5 st8">accumsan et iusto odio dignissim qui blvandit pra</text>
	<text transform="matrix(1 0 0 1 181.0175 185.6544)" class="st4 st5 st8">esent luptatum zzril delenit augue duis dolore te feugait nulla facilisi.</text>
	<text transform="matrix(1 0 0 1 181.0175 200.0544)" class="st4 st5 st8">Lorem ipsum dolor sit amet, cons ectetuer adipiscing elit, sed diam </text>
	<text transform="matrix(1 0 0 1 181.0175 214.4543)" class="st4 st5 st8">nonummy nibh euismod tincidunt ut laoreet dolore magna aliquam erat </text>
	<text transform="matrix(1 0 0 1 181.0175 228.8544)" class="st4 st5 st8">volutpat. Ut wisi enim ad minim veniam, quis nostrud exerci tation </text>
	<text transform="matrix(1 0 0 1 181.0175 243.2544)" class="st4 st5 st8">ullamcorper suscipit lobortis nisl ut aliq</text>
</g>
<path class="st9" d="M295.5,79.6l-77,67.9c-0.6,0.6-1.3,0.7-2,1.2v65.2c0,3.1,2.5,5.6,5.6,5.6h146.6c3.1,0,5.6-2.5,5.6-5.6v-65.2
	c-0.6-0.4-1.3-0.6-1.9-1.1L295.5,79.6z M329.3,171.6c0,1.5-1.3,2.8-2.8,2.8h-19.8v19.8c0,1.5-1.3,2.8-2.8,2.8h-16.9
	c-1.5,0-2.8-1.3-2.8-2.8v-19.8h-19.8c-1.5,0-2.8-1.3-2.8-2.8v-16.9c0-1.5,1.3-2.8,2.8-2.8h19.8v-19.8c0-1.5,1.3-2.8,2.8-2.8h16.9
	c1.5,0,2.8,1.3,2.8,2.8v19.8h19.8c1.5,0,2.8,1.3,2.8,2.8V171.6z M395.1,122.3l-90.2-79.7c-5.4-4.8-13.5-4.8-18.8,0l-90.2,79.7
	c-2.3,2.1-2.5,5.6-0.4,8l0,0l7.5,8.4c2.1,2.3,5.6,2.5,8,0.4l0,0l80.8-71.3c2.1-1.9,5.3-1.9,7.5,0l80.8,71.3c2.3,2.1,5.9,1.9,8-0.4
	l0,0l7.5-8.4C397.6,127.9,397.4,124.4,395.1,122.3z"/>
</svg>
